<mxfile host="app.diagrams.net" modified="2023-01-11T15:25:26.759Z" agent="5.0 (Windows NT 10.0; Win64; x64) AppleWebKit/537.36 (KHTML, like Gecko) Chrome/108.0.0.0 Safari/537.36 OPR/94.0.0.0" etag="J35t2xuTNSBoBFG0Y7aF" version="20.8.3" type="github">
  <diagram name="Page-1" id="e7e014a7-5840-1c2e-5031-d8a46d1fe8dd">
    <mxGraphModel dx="2419" dy="621" grid="1" gridSize="10" guides="1" tooltips="1" connect="1" arrows="1" fold="1" page="1" pageScale="1" pageWidth="1169" pageHeight="826" background="none" math="0" shadow="0">
      <root>
        <mxCell id="0" />
        <mxCell id="1" parent="0" />
        <mxCell id="SPDB-RYZYYu29DdNVvm_-6" value="HRD" style="swimlane;whiteSpace=wrap;startSize=23;" parent="1" vertex="1">
          <mxGeometry x="-1120" y="120" width="490" height="620" as="geometry" />
        </mxCell>
        <mxCell id="SPDB-RYZYYu29DdNVvm_-7" value="" style="ellipse;shape=startState;fillColor=#000000;strokeColor=#ff0000;" parent="SPDB-RYZYYu29DdNVvm_-6" vertex="1">
          <mxGeometry x="100" y="40" width="30" height="30" as="geometry" />
        </mxCell>
        <mxCell id="SPDB-RYZYYu29DdNVvm_-8" value="" style="edgeStyle=elbowEdgeStyle;elbow=horizontal;verticalAlign=bottom;endArrow=open;endSize=8;strokeColor=#FF0000;endFill=1;rounded=0" parent="SPDB-RYZYYu29DdNVvm_-6" source="SPDB-RYZYYu29DdNVvm_-7" edge="1">
          <mxGeometry x="100" y="40" as="geometry">
            <mxPoint x="115.16666666666674" y="110" as="targetPoint" />
          </mxGeometry>
        </mxCell>
        <mxCell id="SPDB-RYZYYu29DdNVvm_-9" value="Menekan tombol recitment&amp;nbsp;" style="rounded=1;whiteSpace=wrap;html=1;" parent="SPDB-RYZYYu29DdNVvm_-6" vertex="1">
          <mxGeometry x="55" y="112" width="120" height="60" as="geometry" />
        </mxCell>
        <mxCell id="SPDB-RYZYYu29DdNVvm_-10" value="memilih lowongan yang ada" style="whiteSpace=wrap;html=1;fillColor=rgb(255, 255, 255);strokeColor=rgb(0, 0, 0);fontColor=rgb(0, 0, 0);rounded=1;" parent="SPDB-RYZYYu29DdNVvm_-6" vertex="1">
          <mxGeometry x="60.5" y="192" width="120" height="60" as="geometry" />
        </mxCell>
        <mxCell id="SPDB-RYZYYu29DdNVvm_-11" value="" style="edgeStyle=orthogonalEdgeStyle;rounded=0;orthogonalLoop=1;jettySize=auto;html=1;entryX=0.5;entryY=0;entryDx=0;entryDy=0;" parent="SPDB-RYZYYu29DdNVvm_-6" source="SPDB-RYZYYu29DdNVvm_-12" target="SPDB-RYZYYu29DdNVvm_-15" edge="1">
          <mxGeometry relative="1" as="geometry">
            <mxPoint x="140" y="400" as="targetPoint" />
          </mxGeometry>
        </mxCell>
        <mxCell id="SPDB-RYZYYu29DdNVvm_-12" value="menekan tombol&amp;nbsp; delete" style="whiteSpace=wrap;html=1;fillColor=rgb(255, 255, 255);strokeColor=rgb(0, 0, 0);fontColor=rgb(0, 0, 0);rounded=1;" parent="SPDB-RYZYYu29DdNVvm_-6" vertex="1">
          <mxGeometry x="80" y="320" width="120" height="60" as="geometry" />
        </mxCell>
        <mxCell id="SPDB-RYZYYu29DdNVvm_-13" value="" style="edgeStyle=orthogonalEdgeStyle;rounded=0;orthogonalLoop=1;jettySize=auto;html=1;" parent="SPDB-RYZYYu29DdNVvm_-6" source="SPDB-RYZYYu29DdNVvm_-15" target="SPDB-RYZYYu29DdNVvm_-16" edge="1">
          <mxGeometry relative="1" as="geometry" />
        </mxCell>
        <mxCell id="SPDB-RYZYYu29DdNVvm_-14" value="" style="edgeStyle=orthogonalEdgeStyle;rounded=0;orthogonalLoop=1;jettySize=auto;html=1;" parent="SPDB-RYZYYu29DdNVvm_-6" source="SPDB-RYZYYu29DdNVvm_-15" target="SPDB-RYZYYu29DdNVvm_-17" edge="1">
          <mxGeometry relative="1" as="geometry" />
        </mxCell>
        <mxCell id="SPDB-RYZYYu29DdNVvm_-15" value="" style="rhombus;whiteSpace=wrap;html=1;fillColor=rgb(255, 255, 255);strokeColor=rgb(0, 0, 0);fontColor=rgb(0, 0, 0);rounded=1;" parent="SPDB-RYZYYu29DdNVvm_-6" vertex="1">
          <mxGeometry x="100.5" y="410" width="80" height="80" as="geometry" />
        </mxCell>
        <mxCell id="SPDB-RYZYYu29DdNVvm_-16" value="menekan tombol iya" style="whiteSpace=wrap;html=1;fillColor=rgb(255, 255, 255);strokeColor=rgb(0, 0, 0);fontColor=rgb(0, 0, 0);rounded=1;" parent="SPDB-RYZYYu29DdNVvm_-6" vertex="1">
          <mxGeometry x="80.5" y="540" width="120" height="60" as="geometry" />
        </mxCell>
        <mxCell id="SPDB-RYZYYu29DdNVvm_-17" value="menekan tombol tidak" style="whiteSpace=wrap;html=1;fillColor=rgb(255, 255, 255);strokeColor=rgb(0, 0, 0);fontColor=rgb(0, 0, 0);rounded=1;" parent="SPDB-RYZYYu29DdNVvm_-6" vertex="1">
          <mxGeometry x="260" y="420" width="150" height="60" as="geometry" />
        </mxCell>
        <mxCell id="SPDB-RYZYYu29DdNVvm_-18" value="yes" style="text;html=1;align=center;verticalAlign=middle;resizable=0;points=[];autosize=1;strokeColor=none;fillColor=none;" parent="SPDB-RYZYYu29DdNVvm_-6" vertex="1">
          <mxGeometry x="160" y="500" width="40" height="30" as="geometry" />
        </mxCell>
        <mxCell id="SPDB-RYZYYu29DdNVvm_-19" value="no" style="text;html=1;align=center;verticalAlign=middle;resizable=0;points=[];autosize=1;strokeColor=none;fillColor=none;" parent="SPDB-RYZYYu29DdNVvm_-6" vertex="1">
          <mxGeometry x="190" y="430" width="40" height="30" as="geometry" />
        </mxCell>
        <mxCell id="SPDB-RYZYYu29DdNVvm_-20" value="Sistem" style="swimlane;whiteSpace=wrap" parent="1" vertex="1">
          <mxGeometry x="-630" y="120" width="430" height="620" as="geometry" />
        </mxCell>
        <mxCell id="SPDB-RYZYYu29DdNVvm_-21" value="menampilkan menu recuitment" style="whiteSpace=wrap;html=1;fillColor=rgb(255, 255, 255);strokeColor=rgb(0, 0, 0);fontColor=rgb(0, 0, 0);rounded=1;" parent="SPDB-RYZYYu29DdNVvm_-20" vertex="1">
          <mxGeometry x="140.5" y="112" width="120" height="60" as="geometry" />
        </mxCell>
        <mxCell id="SPDB-RYZYYu29DdNVvm_-22" value="menampilkan detail lowongan kerja" style="whiteSpace=wrap;html=1;fillColor=rgb(255, 255, 255);strokeColor=rgb(0, 0, 0);fontColor=rgb(0, 0, 0);rounded=1;" parent="SPDB-RYZYYu29DdNVvm_-20" vertex="1">
          <mxGeometry x="150" y="252" width="120" height="60" as="geometry" />
        </mxCell>
        <mxCell id="SPDB-RYZYYu29DdNVvm_-23" value="" style="edgeStyle=orthogonalEdgeStyle;rounded=0;orthogonalLoop=1;jettySize=auto;html=1;" parent="SPDB-RYZYYu29DdNVvm_-20" source="SPDB-RYZYYu29DdNVvm_-24" target="SPDB-RYZYYu29DdNVvm_-25" edge="1">
          <mxGeometry relative="1" as="geometry" />
        </mxCell>
        <mxCell id="SPDB-RYZYYu29DdNVvm_-24" value="menampilkan pesan lowongan berhasil dihapus" style="whiteSpace=wrap;html=1;fillColor=rgb(255, 255, 255);strokeColor=rgb(0, 0, 0);fontColor=rgb(0, 0, 0);rounded=1;" parent="SPDB-RYZYYu29DdNVvm_-20" vertex="1">
          <mxGeometry x="130" y="540" width="120" height="60" as="geometry" />
        </mxCell>
        <mxCell id="SPDB-RYZYYu29DdNVvm_-25" value="" style="ellipse;html=1;shape=endState;fillColor=#000000;strokeColor=#ff0000;" parent="SPDB-RYZYYu29DdNVvm_-20" vertex="1">
          <mxGeometry x="300" y="555" width="30" height="30" as="geometry" />
        </mxCell>
        <mxCell id="SPDB-RYZYYu29DdNVvm_-26" style="edgeStyle=orthogonalEdgeStyle;rounded=0;orthogonalLoop=1;jettySize=auto;html=1;entryX=1;entryY=0.5;entryDx=0;entryDy=0;" parent="SPDB-RYZYYu29DdNVvm_-20" source="SPDB-RYZYYu29DdNVvm_-27" target="SPDB-RYZYYu29DdNVvm_-21" edge="1">
          <mxGeometry relative="1" as="geometry">
            <Array as="points">
              <mxPoint x="340" y="430" />
              <mxPoint x="340" y="142" />
            </Array>
          </mxGeometry>
        </mxCell>
        <mxCell id="SPDB-RYZYYu29DdNVvm_-27" value="menampilkan pesan lowongan tidak berhasil dihapus" style="whiteSpace=wrap;html=1;fillColor=rgb(255, 255, 255);strokeColor=rgb(0, 0, 0);fontColor=rgb(0, 0, 0);rounded=1;" parent="SPDB-RYZYYu29DdNVvm_-20" vertex="1">
          <mxGeometry x="140.5" y="420" width="120" height="60" as="geometry" />
        </mxCell>
        <mxCell id="SPDB-RYZYYu29DdNVvm_-28" value="" style="edgeStyle=orthogonalEdgeStyle;rounded=0;orthogonalLoop=1;jettySize=auto;html=1;" parent="1" source="SPDB-RYZYYu29DdNVvm_-9" target="SPDB-RYZYYu29DdNVvm_-21" edge="1">
          <mxGeometry relative="1" as="geometry" />
        </mxCell>
        <mxCell id="SPDB-RYZYYu29DdNVvm_-29" value="" style="edgeStyle=orthogonalEdgeStyle;rounded=0;orthogonalLoop=1;jettySize=auto;html=1;" parent="1" source="SPDB-RYZYYu29DdNVvm_-21" target="SPDB-RYZYYu29DdNVvm_-10" edge="1">
          <mxGeometry relative="1" as="geometry">
            <Array as="points">
              <mxPoint x="-420" y="342" />
            </Array>
          </mxGeometry>
        </mxCell>
        <mxCell id="SPDB-RYZYYu29DdNVvm_-30" value="" style="edgeStyle=orthogonalEdgeStyle;rounded=0;orthogonalLoop=1;jettySize=auto;html=1;" parent="1" source="SPDB-RYZYYu29DdNVvm_-10" target="SPDB-RYZYYu29DdNVvm_-22" edge="1">
          <mxGeometry relative="1" as="geometry">
            <Array as="points">
              <mxPoint x="-980" y="410" />
            </Array>
          </mxGeometry>
        </mxCell>
        <mxCell id="SPDB-RYZYYu29DdNVvm_-31" value="" style="edgeStyle=orthogonalEdgeStyle;rounded=0;orthogonalLoop=1;jettySize=auto;html=1;" parent="1" source="SPDB-RYZYYu29DdNVvm_-22" target="SPDB-RYZYYu29DdNVvm_-12" edge="1">
          <mxGeometry relative="1" as="geometry">
            <Array as="points">
              <mxPoint x="-420" y="470" />
            </Array>
          </mxGeometry>
        </mxCell>
        <mxCell id="SPDB-RYZYYu29DdNVvm_-32" value="" style="edgeStyle=orthogonalEdgeStyle;rounded=0;orthogonalLoop=1;jettySize=auto;html=1;exitX=1;exitY=0.5;exitDx=0;exitDy=0;" parent="1" source="SPDB-RYZYYu29DdNVvm_-16" target="SPDB-RYZYYu29DdNVvm_-24" edge="1">
          <mxGeometry relative="1" as="geometry">
            <mxPoint x="-700" y="550.090909090909" as="sourcePoint" />
          </mxGeometry>
        </mxCell>
        <mxCell id="SPDB-RYZYYu29DdNVvm_-33" style="edgeStyle=orthogonalEdgeStyle;rounded=0;orthogonalLoop=1;jettySize=auto;html=1;" parent="1" source="SPDB-RYZYYu29DdNVvm_-17" target="SPDB-RYZYYu29DdNVvm_-27" edge="1">
          <mxGeometry relative="1" as="geometry" />
        </mxCell>
      </root>
    </mxGraphModel>
  </diagram>
</mxfile>
